<?xml version="1.0" encoding="UTF-8" standalone="no"?>
<svg
   xmlns:dc="http://purl.org/dc/elements/1.1/"
   xmlns:cc="http://creativecommons.org/ns#"
   xmlns:rdf="http://www.w3.org/1999/02/22-rdf-syntax-ns#"
   xmlns:svg="http://www.w3.org/2000/svg"
   xmlns="http://www.w3.org/2000/svg"
   xmlns:sodipodi="http://sodipodi.sourceforge.net/DTD/sodipodi-0.dtd"
   xmlns:inkscape="http://www.inkscape.org/namespaces/inkscape"
   width="200mm"
   height="200mm"
   viewBox="0 0 200 200"
   version="1.1"
   id="svg8"
   inkscape:version="1.0.2 (e86c870879, 2021-01-15)"
   sodipodi:docname="plus.svg">
  <defs
     id="defs2" />
  <sodipodi:namedview
     id="base"
     pagecolor="#ffffff"
     bordercolor="#666666"
     borderopacity="1.0"
     inkscape:pageopacity="0.0"
     inkscape:pageshadow="2"
     inkscape:zoom="0.35"
     inkscape:cx="400"
     inkscape:cy="560"
     inkscape:document-units="mm"
     inkscape:current-layer="layer1"
     inkscape:document-rotation="0"
     showgrid="false"
     inkscape:window-width="1431"
     inkscape:window-height="1030"
     inkscape:window-x="128"
     inkscape:window-y="0"
     inkscape:window-maximized="0" />
  <metadata
     id="metadata5">
    <rdf:RDF>
      <cc:Work
         rdf:about="">
        <dc:format>image/svg+xml</dc:format>
        <dc:type
           rdf:resource="http://purl.org/dc/dcmitype/StillImage" />
        <dc:title></dc:title>
      </cc:Work>
    </rdf:RDF>
  </metadata>
  <g
     inkscape:label="Layer 1"
     inkscape:groupmode="layer"
     id="layer1">
    <path
       style="fill:#000000;stroke-width:1.20532"
       d="m 60.388002,180.53089 c -14.15491,-3.44673 -28.53095,-14.5792 -34.79809,-26.9468 -6.08533,-12.00883 -6.7856,-17.40933 -6.7856,-52.33132 0,-19.100463 0.54797,-34.833272 1.34507,-38.618432 4.21704,-20.025346 19.82663,-35.974387 40.4716,-41.35172 8.56949,-2.232068 67.668968,-2.576299 77.752408,-0.452877 20.02535,4.217041 35.97439,19.826626 41.35171,40.471597 2.23207,8.56949 2.5763,67.668962 0.45288,77.752392 -4.21703,20.02536 -19.82662,35.9744 -40.4716,41.35172 -8.88444,2.3141 -69.933578,2.41065 -79.318378,0.12544 z m 79.572258,-10.92937 c 12.9023,-3.88303 23.76567,-14.58495 28.35997,-27.93851 2.11872,-6.15816 2.3549,-10.25182 2.3549,-40.81612 0,-37.945802 -0.49758,-41.256522 -7.79256,-51.848509 -5.1938,-7.541162 -12.73477,-13.157617 -21.89991,-16.310889 -6.15815,-2.118715 -10.25181,-2.3549 -40.81612,-2.3549 -37.945808,0 -41.256528,0.497583 -51.848518,7.792567 -7.54116,5.193797 -13.15762,12.734762 -16.31089,21.899909 -2.11871,6.15815 -2.3549,10.25181 -2.3549,40.816082 0,37.94583 0.49758,41.25655 7.79257,51.84854 5.06889,7.3598 12.68401,13.12965 21.43259,16.23914 5.59242,1.98768 10.35655,2.2608 40.793391,2.33858 26.889337,0.0687 35.742067,-0.29732 40.289477,-1.66589 z m -43.32645,-29.0679 c -1.53382,-1.53383 -1.89408,-4.97261 -1.89408,-18.07986 V 106.26798 H 78.553952 c -13.10725,0 -16.54603,-0.36025 -18.07986,-1.89408 -1.04174,-1.04174 -1.89408,-2.63019 -1.89408,-3.52988 0,-0.899687 0.85234,-2.488118 1.89408,-3.529862 1.53383,-1.533814 4.97261,-1.894071 18.07986,-1.894071 H 94.73973 v -16.18578 c 0,-13.107239 0.36026,-16.546029 1.89408,-18.079859 2.404126,-2.40413 4.65561,-2.40413 7.05974,0 1.53383,1.53383 1.89408,4.97262 1.89408,18.079859 v 16.18578 h 16.18578 c 13.10725,0 16.54604,0.360257 18.07986,1.894071 2.40414,2.404125 2.40414,4.655612 0,7.059742 -1.53382,1.53383 -4.97261,1.89408 -18.07986,1.89408 h -16.18578 v 16.18578 c 0,13.10725 -0.36025,16.54603 -1.89408,18.07986 -1.04174,1.04175 -2.63019,1.89408 -3.52988,1.89408 -0.899674,0 -2.488115,-0.85233 -3.52986,-1.89408 z"
       id="path24" />
  </g>
</svg>
