<?xml version="1.0" encoding="UTF-8" standalone="no"?>
<svg
   xmlns:dc="http://purl.org/dc/elements/1.1/"
   xmlns:cc="http://creativecommons.org/ns#"
   xmlns:rdf="http://www.w3.org/1999/02/22-rdf-syntax-ns#"
   xmlns:svg="http://www.w3.org/2000/svg"
   xmlns="http://www.w3.org/2000/svg"
   xmlns:sodipodi="http://sodipodi.sourceforge.net/DTD/sodipodi-0.dtd"
   xmlns:inkscape="http://www.inkscape.org/namespaces/inkscape"
   width="210mm"
   height="297mm"
   viewBox="0 0 210 297"
   version="1.1"
   id="svg8"
   inkscape:version="1.0.2 (e86c870879, 2021-01-15)"
   sodipodi:docname="room_plan_icon.svg">
  <defs
     id="defs2" />
  <sodipodi:namedview
     id="base"
     pagecolor="#ffffff"
     bordercolor="#666666"
     borderopacity="1.0"
     inkscape:pageopacity="0.0"
     inkscape:pageshadow="2"
     inkscape:zoom="0.35"
     inkscape:cx="1278.3756"
     inkscape:cy="548.32306"
     inkscape:document-units="mm"
     inkscape:current-layer="layer1"
     inkscape:document-rotation="0"
     showgrid="false"
     inkscape:window-width="1920"
     inkscape:window-height="1001"
     inkscape:window-x="-9"
     inkscape:window-y="-9"
     inkscape:window-maximized="1" />
  <metadata
     id="metadata5">
    <rdf:RDF>
      <cc:Work
         rdf:about="">
        <dc:format>image/svg+xml</dc:format>
        <dc:type
           rdf:resource="http://purl.org/dc/dcmitype/StillImage" />
        <dc:title></dc:title>
      </cc:Work>
    </rdf:RDF>
  </metadata>
  <g
     inkscape:label="Layer 1"
     inkscape:groupmode="layer"
     id="layer1">
    <path
       style="fill:#000000;stroke-width:0.85332"
       d="m 30.839842,225.34393 c 0,0 -0.254164,-1.37298 -0.233838,-1.79988 0.0391,-0.82132 0.13511,-40.66481 0.21333,-88.54111 l 0.14223,-87.047799 64.84424,0.02889 64.844246,0.02889 0.22144,41.579593 0.22143,41.579596 16.42642,0.23176 16.42642,0.23176 v 23.44788 23.44789 h -33.26579 -33.26578 l -0.22704,23.25298 -0.22704,23.25298 -35.577526,0.22266 -45.389369,0.11603 c -9.336584,-0.15489 -15.153373,-0.0321 -15.153373,-0.0321 z m 86.733738,-30.17278 v -19.62637 l -11.51983,-0.42666 -11.519816,-0.42667 0.0855,-4.70186 c 0.14515,-7.97789 4.11081,-12.7912 10.538576,-12.7912 3.52256,0 3.7095,2.97851 0.23062,3.67429 -2.80485,0.56097 -7.014806,4.22079 -7.014806,6.09814 0,1.17467 4.768256,1.32073 43.114906,1.32073 h 43.1149 l -0.23555,-13.01313 -0.23556,-13.01314 -16.41831,-0.23173 -16.41831,-0.23173 -0.22144,-41.58098 -0.22143,-41.580972 h -23.03965 -23.03966 l -0.42666,41.386042 -0.42666,41.38605 h -2.98662 -2.986616 l -0.2303,-18.13307 -0.2303,-18.13306 h -6.26408 -6.26407 l -0.51882,-4.47993 c -0.4269,-3.686173 -1.05051,-4.971308 -3.51961,-7.253224 -1.65044,-1.52531 -3.77442,-2.773292 -4.71996,-2.773292 -1.13287,0 -1.71917,-0.564856 -1.71917,-1.65628 0,-2.345768 0.9729,-2.675771 4.60353,-1.561498 3.81186,1.169893 8.19627,5.874077 8.19627,8.794053 0,2.002197 0.24683,2.103609 5.11993,2.103609 h 5.11992 v -20.05303 -20.05303 h -28.15958 -28.15957 v 20.05303 20.05303 h 12.30204 c 13.13575,0 13.24678,0.03878 12.60624,4.403122 l -0.35569,2.42344 h -12.27629 -12.2763 v 31.57287 31.57285 h 14.50645 c 9.69865,0 14.50644,-0.3014 14.50644,-0.90942 0,-2.20402 -2.13216,-4.4947 -5.61956,-6.03734 -4.56932,-2.02123 -5.03395,-4.1464 -0.90653,-4.1464 6.43933,0 11.19111,6.28933 10.6192,14.05528 l -0.25316,3.43778 -16.42642,0.23176 -16.42642,0.23176 v 20.04339 20.04339 l 38.18609,-0.22212 38.186086,-0.22211 z m -66.132326,0 v -6.39991 h 23.03965 23.03965 v 6.39991 6.3999 h -23.03965 -23.03965 z"
       id="path24"
       sodipodi:nodetypes="csscccccccccccccccccccccsssscccccccccccccccccssssssscccccccsscccccsssssccccccccccccccccc" />
  </g>
</svg>
