<?xml version="1.0" encoding="UTF-8" standalone="no"?>
<svg
   xmlns:dc="http://purl.org/dc/elements/1.1/"
   xmlns:cc="http://creativecommons.org/ns#"
   xmlns:rdf="http://www.w3.org/1999/02/22-rdf-syntax-ns#"
   xmlns:svg="http://www.w3.org/2000/svg"
   xmlns="http://www.w3.org/2000/svg"
   xmlns:sodipodi="http://sodipodi.sourceforge.net/DTD/sodipodi-0.dtd"
   xmlns:inkscape="http://www.inkscape.org/namespaces/inkscape"
   width="200mm"
   height="200mm"
   viewBox="0 0 200 200"
   version="1.1"
   id="svg8"
   inkscape:version="1.0.2 (e86c870879, 2021-01-15)"
   sodipodi:docname="trash.svg">
  <defs
     id="defs2" />
  <sodipodi:namedview
     id="base"
     pagecolor="#ffffff"
     bordercolor="#666666"
     borderopacity="1.0"
     inkscape:pageopacity="0.0"
     inkscape:pageshadow="2"
     inkscape:zoom="0.35"
     inkscape:cx="913.49512"
     inkscape:cy="801.09984"
     inkscape:document-units="mm"
     inkscape:current-layer="layer1"
     inkscape:document-rotation="0"
     showgrid="false"
     inkscape:window-width="1920"
     inkscape:window-height="1001"
     inkscape:window-x="-9"
     inkscape:window-y="-9"
     inkscape:window-maximized="1" />
  <metadata
     id="metadata5">
    <rdf:RDF>
      <cc:Work
         rdf:about="">
        <dc:format>image/svg+xml</dc:format>
        <dc:type
           rdf:resource="http://purl.org/dc/dcmitype/StillImage" />
        <dc:title></dc:title>
      </cc:Work>
    </rdf:RDF>
  </metadata>
  <g
     inkscape:label="Layer 1"
     inkscape:groupmode="layer"
     id="layer1">
    <path
       style="fill:#000000;stroke-width:2.95801"
       d="m 44.486707,184.50887 c -2.08215,-2.50882 -4.59984,-25.14286 -6.32367,-56.8496 -2.2478,-41.344468 -3.8092,-53.210028 -7.25573,-55.138808 -2.93122,-1.64039 -4.39158,-7.17456 -4.39158,-16.64228 0,-18.852713 5.70001,-23.955153 26.85504,-24.039603 15.15699,-0.0605 16.27941,-0.58756 20.47318,-9.61354 4.29644,-9.24697 5.08068,-9.57749 24.752081,-10.43213 21.825092,-0.9482 31.450182,3.53597 31.450182,14.65212 0,4.68227 2.45614,5.45757 17.28962,5.45757 12.99326,0 18.50613,1.34421 22.18511,5.40944 6.41906,7.09298 6.71409,31.733023 0.42213,35.254183 -3.54047,1.98135 -5.0495,13.09425 -7.23611,53.288738 -1.51952,27.93193 -4.21222,53.49366 -5.98378,56.80385 -3.05453,5.70745 -5.94882,6.01851 -55.99899,6.01851 -41.793813,0 -53.497973,-0.86753 -56.237483,-4.16845 z m 101.308253,-9.88211 c 0.71931,-1.22018 2.27067,-24.51454 3.44748,-51.76524 l 2.13964,-49.546728 H 100.46607 49.550057 l 2.13964,49.546728 c 1.17681,27.2507 2.72817,50.54506 3.44748,51.76524 0.71931,1.22018 21.11731,2.21851 45.328893,2.21851 24.21158,0 44.60958,-0.99833 45.32889,-2.21851 z M 66.347237,164.33589 c -0.85953,-2.23991 -1.18829,-21.30655 -0.73056,-42.37031 0.78335,-36.048318 1.17971,-38.297738 6.74826,-38.297738 5.63404,0 5.91603,1.97201 5.91603,41.371678 0,37.07701 -0.53829,41.47535 -5.18547,42.37031 -2.85201,0.54925 -5.88872,-0.83402 -6.74826,-3.07394 z m 30.174811,1.66333 c -1.0846,-1.0846 -1.97201,-20.38564 -1.97201,-42.8912 0,-38.947178 0.28512,-40.919188 5.916032,-40.919188 5.64403,0 5.91603,1.97201 5.91603,42.891198 0,33.77066 -0.83867,42.8912 -3.94402,42.8912 -2.16921,0 -4.831422,-0.88741 -5.916032,-1.97201 z m 26.027452,-1.66333 c -0.85953,-2.23991 -1.18829,-21.30655 -0.73056,-42.37031 0.78335,-36.048318 1.17971,-38.297738 6.74826,-38.297738 5.63404,0 5.91603,1.97201 5.91603,41.371678 0,37.07701 -0.53829,41.47535 -5.18547,42.37031 -2.85201,0.54925 -5.88872,-0.83402 -6.74826,-3.07394 z M 159.62635,52.608699 c 0,-5.71883 -1.97201,-5.91603 -59.16028,-5.91603 -57.188263,0 -59.160273,0.19721 -59.160273,5.91603 0,5.718823 1.97201,5.916023 59.160273,5.916023 57.18827,0 59.16028,-0.19721 59.16028,-5.916023 z m -44.37021,-25.3052 c 0,-3.63248 -3.73181,-5.255998 -14.66979,-5.209415 -7.622092,0.03246 -13.118893,1.09754 -13.018697,5.646751 0.06884,3.125418 3.84205,4.161764 12.651917,4.161764 11.62934,0 15.03657,-1.04214 15.03657,-4.5991 z"
       id="path42"
       sodipodi:nodetypes="ssssssssssssssssscccssssssssssssssssssssssssssssssss" />
    <path
       style="fill:#000000;stroke-width:2.95801"
       id="path36"
       d="" />
    <path
       style="fill:#000000;stroke-width:2.95801"
       id="path34"
       d="" />
    <path
       style="fill:#000000;stroke-width:2.95801"
       id="path32"
       d="" />
    <path
       style="fill:#000000;stroke-width:2.95801"
       id="path30"
       d="" />
    <path
       style="fill:#000000;stroke-width:2.95801"
       id="path28"
       d="" />
    <path
       style="fill:#000000;stroke-width:2.95801"
       id="path26"
       d="" />
    <path
       style="fill:#000000;stroke-width:2.95801"
       id="path24"
       d="" />
  </g>
</svg>
